<?xml version="1.0" encoding="utf-8"?>
<svg viewBox="234.042 184.021 288.492 108.96" xmlns="http://www.w3.org/2000/svg">
  <g id="layer1" transform="matrix(1, 0, 0, 1, 4.285707, -418.076477)">
    <g style="font-size:60px;font-style:normal;font-variant:normal;font-weight:200;font-stretch:normal;text-align:center;line-height:125%;letter-spacing:-0.5px;word-spacing:0px;writing-mode:lr-tb;text-anchor:middle;fill:#fff8b5;fill-opacity:1;stroke:none;font-family:Helvetica Neue LT Com;-inkscape-font-specification:Helvetica Neue LT Com Ultra-Light" id="text4073" transform="matrix(1, 0, 0, 1, 0.094587, 0.666199)">
      <path d="M 288.417 628.911 C 288.417 626.751 288.797 624.691 289.557 622.731 C 290.357 620.771 291.497 619.051 292.977 617.571 C 294.457 616.051 296.257 614.851 298.377 613.971 C 300.537 613.051 302.997 612.591 305.757 612.591 C 308.517 612.591 310.957 613.051 313.077 613.971 C 315.237 614.851 317.057 616.051 318.537 617.571 C 320.017 619.051 321.137 620.771 321.897 622.731 C 322.697 624.691 323.097 626.751 323.097 628.911 C 323.097 631.071 322.697 633.151 321.897 635.151 C 321.137 637.111 320.017 638.851 318.537 640.371 C 317.057 641.851 315.237 643.031 313.077 643.911 C 310.957 644.791 308.517 645.231 305.757 645.231 C 302.997 645.231 300.537 644.791 298.377 643.911 C 296.257 643.031 294.457 641.851 292.977 640.371 C 291.497 638.851 290.357 637.111 289.557 635.151 C 288.797 633.151 288.417 631.071 288.417 628.911 Z M 291.177 628.911 C 291.177 630.671 291.477 632.391 292.077 634.071 C 292.677 635.711 293.577 637.191 294.777 638.511 C 296.017 639.791 297.537 640.831 299.337 641.631 C 301.177 642.431 303.317 642.831 305.757 642.831 C 308.197 642.831 310.317 642.431 312.117 641.631 C 313.957 640.831 315.477 639.791 316.677 638.511 C 317.917 637.191 318.837 635.711 319.437 634.071 C 320.037 632.391 320.337 630.671 320.337 628.911 C 320.337 627.191 320.037 625.491 319.437 623.811 C 318.837 622.131 317.917 620.651 316.677 619.371 C 315.477 618.051 313.957 616.991 312.117 616.191 C 310.317 615.391 308.197 614.991 305.757 614.991 C 303.317 614.991 301.177 615.391 299.337 616.191 C 297.537 616.991 296.017 618.051 294.777 619.371 C 293.577 620.651 292.677 622.131 292.077 623.811 C 291.477 625.491 291.177 627.191 291.177 628.911 Z" id="path4168" style="fill-opacity: 1; fill: rgb(0, 0, 0);"/>
      <path d="M 351.209 622.551 C 351.009 619.991 350.009 618.091 348.209 616.851 C 346.449 615.611 343.569 614.991 339.569 614.991 C 337.689 614.991 336.109 615.171 334.829 615.531 C 333.549 615.851 332.509 616.291 331.709 616.851 C 330.949 617.411 330.389 618.071 330.029 618.831 C 329.709 619.551 329.549 620.311 329.549 621.111 C 329.549 622.791 330.109 624.031 331.229 624.831 C 332.389 625.591 333.889 626.091 335.729 626.331 L 345.509 627.651 C 346.949 627.851 348.249 628.151 349.409 628.551 C 350.609 628.911 351.629 629.431 352.469 630.111 C 353.349 630.751 354.009 631.571 354.449 632.571 C 354.929 633.531 355.169 634.691 355.169 636.051 C 355.169 638.131 354.649 639.791 353.609 641.031 C 352.569 642.231 351.289 643.151 349.769 643.791 C 348.249 644.391 346.649 644.771 344.969 644.931 C 343.289 645.131 341.789 645.231 340.469 645.231 C 338.349 645.231 336.389 645.031 334.589 644.631 C 332.829 644.271 331.289 643.671 329.969 642.831 C 328.649 641.991 327.589 640.911 326.789 639.591 C 326.029 638.231 325.589 636.591 325.469 634.671 L 328.229 634.671 C 328.309 635.471 328.469 636.351 328.709 637.311 C 328.949 638.231 329.489 639.111 330.329 639.951 C 331.209 640.751 332.489 641.431 334.169 641.991 C 335.849 642.551 338.189 642.831 341.189 642.831 C 345.229 642.831 348.109 642.251 349.829 641.091 C 351.549 639.931 352.409 638.251 352.409 636.051 C 352.409 634.251 351.829 632.931 350.669 632.091 C 349.509 631.251 348.029 630.711 346.229 630.471 L 335.429 629.031 C 334.469 628.911 333.469 628.711 332.429 628.431 C 331.429 628.111 330.509 627.651 329.669 627.051 C 328.829 626.451 328.129 625.691 327.569 624.771 C 327.049 623.851 326.789 622.691 326.789 621.291 C 326.789 620.411 326.969 619.471 327.329 618.471 C 327.689 617.471 328.349 616.531 329.309 615.651 C 330.269 614.771 331.589 614.051 333.269 613.491 C 334.949 612.891 337.089 612.591 339.689 612.591 C 342.529 612.591 344.849 612.891 346.649 613.491 C 348.489 614.051 349.929 614.811 350.969 615.771 C 352.009 616.731 352.749 617.811 353.189 619.011 C 353.629 620.171 353.889 621.351 353.969 622.551 L 351.209 622.551 Z" id="path4170" style="fill-opacity: 1; fill: rgb(0, 0, 0);"/>
      <path d="M 382.935 622.551 C 382.735 619.991 381.735 618.091 379.935 616.851 C 378.175 615.611 375.295 614.991 371.295 614.991 C 369.415 614.991 367.835 615.171 366.555 615.531 C 365.275 615.851 364.235 616.291 363.435 616.851 C 362.675 617.411 362.115 618.071 361.755 618.831 C 361.435 619.551 361.275 620.311 361.275 621.111 C 361.275 622.791 361.835 624.031 362.955 624.831 C 364.115 625.591 365.615 626.091 367.455 626.331 L 377.235 627.651 C 378.675 627.851 379.975 628.151 381.135 628.551 C 382.335 628.911 383.355 629.431 384.195 630.111 C 385.075 630.751 385.735 631.571 386.175 632.571 C 386.655 633.531 386.895 634.691 386.895 636.051 C 386.895 638.131 386.375 639.791 385.335 641.031 C 384.295 642.231 383.015 643.151 381.495 643.791 C 379.975 644.391 378.375 644.771 376.695 644.931 C 375.015 645.131 373.515 645.231 372.195 645.231 C 370.075 645.231 368.115 645.031 366.315 644.631 C 364.555 644.271 363.015 643.671 361.695 642.831 C 360.375 641.991 359.315 640.911 358.515 639.591 C 357.755 638.231 357.315 636.591 357.195 634.671 L 359.955 634.671 C 360.035 635.471 360.195 636.351 360.435 637.311 C 360.675 638.231 361.215 639.111 362.055 639.951 C 362.935 640.751 364.215 641.431 365.895 641.991 C 367.575 642.551 369.915 642.831 372.915 642.831 C 376.955 642.831 379.835 642.251 381.555 641.091 C 383.275 639.931 384.135 638.251 384.135 636.051 C 384.135 634.251 383.555 632.931 382.395 632.091 C 381.235 631.251 379.755 630.711 377.955 630.471 L 367.155 629.031 C 366.195 628.911 365.195 628.711 364.155 628.431 C 363.155 628.111 362.235 627.651 361.395 627.051 C 360.555 626.451 359.855 625.691 359.295 624.771 C 358.775 623.851 358.515 622.691 358.515 621.291 C 358.515 620.411 358.695 619.471 359.055 618.471 C 359.415 617.471 360.075 616.531 361.035 615.651 C 361.995 614.771 363.315 614.051 364.995 613.491 C 366.675 612.891 368.815 612.591 371.415 612.591 C 374.255 612.591 376.575 612.891 378.375 613.491 C 380.215 614.051 381.655 614.811 382.695 615.771 C 383.735 616.731 384.475 617.811 384.915 619.011 C 385.355 620.171 385.615 621.351 385.695 622.551 L 382.935 622.551 Z" id="path4172" style="fill-opacity: 1; fill: rgb(0, 0, 0);"/>
      <path d="M 391.262 601.431 L 394.022 601.431 L 394.022 607.791 L 391.262 607.791 L 391.262 601.431 Z M 391.262 613.551 L 394.022 613.551 L 394.022 644.271 L 391.262 644.271 L 391.262 613.551 Z" id="path4174" style="fill-opacity: 1; fill: rgb(0, 0, 0);"/>
      <path d="M 417.283 614.991 C 414.403 614.991 412.023 615.451 410.143 616.371 C 408.303 617.251 406.843 618.371 405.763 619.731 C 404.683 621.091 403.923 622.571 403.483 624.171 C 403.083 625.771 402.883 627.251 402.883 628.611 C 402.883 631.331 403.323 633.591 404.203 635.391 C 405.083 637.191 406.203 638.651 407.563 639.771 C 408.923 640.891 410.423 641.691 412.063 642.171 C 413.743 642.611 415.363 642.831 416.923 642.831 C 418.683 642.831 420.383 642.551 422.023 641.991 C 423.703 641.431 425.163 640.591 426.403 639.471 C 427.683 638.311 428.703 636.871 429.463 635.151 C 430.223 633.431 430.603 631.391 430.603 629.031 C 430.603 626.831 430.263 624.871 429.583 623.151 C 428.903 621.391 427.963 619.911 426.763 618.711 C 425.603 617.511 424.203 616.591 422.563 615.951 C 420.963 615.311 419.203 614.991 417.283 614.991 Z M 400.483 613.551 L 403.243 613.551 L 403.243 620.271 L 403.363 620.271 C 403.723 619.351 404.263 618.431 404.983 617.511 C 405.703 616.591 406.623 615.771 407.743 615.051 C 408.863 614.331 410.183 613.751 411.703 613.311 C 413.223 612.831 414.983 612.591 416.983 612.591 C 419.663 612.591 422.023 613.051 424.063 613.971 C 426.143 614.851 427.863 616.051 429.223 617.571 C 430.583 619.051 431.603 620.791 432.283 622.791 C 433.003 624.751 433.363 626.811 433.363 628.971 C 433.363 631.411 432.943 633.631 432.103 635.631 C 431.303 637.631 430.163 639.351 428.683 640.791 C 427.203 642.191 425.463 643.291 423.463 644.091 C 421.463 644.851 419.303 645.231 416.983 645.231 C 415.103 645.231 413.403 644.991 411.883 644.511 C 410.403 644.071 409.103 643.491 407.983 642.771 C 406.863 642.011 405.923 641.191 405.163 640.311 C 404.403 639.431 403.803 638.571 403.363 637.731 L 403.243 637.731 L 403.243 710.391 L 400.483 710.391 L 400.483 613.551 Z" id="path4176" style="fill-opacity: 1; fill: rgb(0, 0, 0);"/>
      <path d="M 476.094 613.551 L 478.854 613.551 L 478.854 642.771 C 478.854 644.531 478.634 646.271 478.194 647.991 C 477.794 649.751 476.994 651.331 475.794 652.731 C 474.594 654.131 472.894 655.271 470.694 656.151 C 468.494 657.031 465.614 657.471 462.054 657.471 C 457.214 657.471 453.474 656.691 450.834 655.131 C 448.234 653.571 446.674 650.911 446.154 647.151 L 448.914 647.151 C 449.074 648.351 449.414 649.431 449.934 650.391 C 450.494 651.391 451.294 652.231 452.334 652.911 C 453.374 653.631 454.694 654.171 456.294 654.531 C 457.894 654.891 459.814 655.071 462.054 655.071 C 465.054 655.071 467.454 654.691 469.254 653.931 C 471.094 653.211 472.514 652.271 473.514 651.111 C 474.554 649.951 475.234 648.651 475.554 647.211 C 475.914 645.771 476.094 644.331 476.094 642.891 L 476.094 636.531 L 475.974 636.531 C 474.614 639.091 472.674 640.971 470.154 642.171 C 467.674 643.331 464.814 643.911 461.574 643.911 C 458.574 643.911 456.014 643.471 453.894 642.591 C 451.814 641.711 450.094 640.551 448.734 639.111 C 447.414 637.631 446.434 635.931 445.794 634.011 C 445.194 632.091 444.894 630.111 444.894 628.071 C 444.894 626.071 445.214 624.151 445.854 622.311 C 446.494 620.431 447.494 618.771 448.854 617.331 C 450.214 615.891 451.934 614.751 454.014 613.911 C 456.134 613.031 458.674 612.591 461.634 612.591 C 462.994 612.591 464.374 612.711 465.774 612.951 C 467.174 613.151 468.494 613.531 469.734 614.091 C 471.014 614.611 472.194 615.331 473.274 616.251 C 474.354 617.171 475.254 618.331 475.974 619.731 L 476.094 619.791 L 476.094 613.551 Z M 461.634 614.991 C 459.834 614.991 458.074 615.251 456.354 615.771 C 454.674 616.291 453.194 617.091 451.914 618.171 C 450.634 619.211 449.594 620.551 448.794 622.191 C 448.034 623.831 447.654 625.751 447.654 627.951 C 447.654 632.391 448.874 635.771 451.314 638.091 C 453.794 640.371 457.334 641.511 461.934 641.511 C 463.934 641.511 465.794 641.251 467.514 640.731 C 469.234 640.171 470.734 639.331 472.014 638.211 C 473.294 637.091 474.294 635.691 475.014 634.011 C 475.734 632.291 476.094 630.251 476.094 627.891 C 476.094 623.771 474.814 620.591 472.254 618.351 C 469.734 616.111 466.194 614.991 461.634 614.991 Z" id="path4178" style="fill-opacity: 1; fill: rgb(0, 0, 0);"/>
      <path d="M 485.34 601.431 L 488.1 601.431 L 488.1 607.791 L 485.34 607.791 L 485.34 601.431 Z M 485.34 613.551 L 488.1 613.551 L 488.1 644.271 L 485.34 644.271 L 485.34 613.551 Z" id="path4180" style="fill-opacity: 1; fill: rgb(0, 0, 0);"/>
      <path d="M 494.561 613.551 L 497.321 613.551 L 497.321 620.811 L 497.441 620.811 C 498.481 618.051 500.101 615.991 502.301 614.631 C 504.541 613.271 507.161 612.591 510.161 612.591 C 510.601 612.591 510.981 612.631 511.301 612.711 C 511.621 612.751 512.001 612.831 512.441 612.951 L 512.441 615.711 C 512.121 615.591 511.721 615.511 511.241 615.471 C 510.801 615.391 510.141 615.351 509.261 615.351 C 507.261 615.351 505.501 615.711 503.981 616.431 C 502.501 617.111 501.261 618.031 500.261 619.191 C 499.301 620.311 498.561 621.611 498.041 623.091 C 497.561 624.571 497.321 626.091 497.321 627.651 L 497.321 644.271 L 494.561 644.271 L 494.561 613.551 Z" id="path4182" style="fill-opacity: 1; fill: rgb(0, 0, 0);"/>
      <path d="M 515.394 601.431 L 518.154 601.431 L 518.154 644.271 L 515.394 644.271 L 515.394 601.431 Z" id="path4184" style="fill-opacity: 1; fill: rgb(0, 0, 0);"/>
      <path d="M 268.889 614.797 L 271.649 614.797 L 271.649 622.057 L 271.769 622.057 C 272.809 619.297 274.429 617.237 276.629 615.877 C 278.869 614.517 281.489 613.837 284.489 613.837 C 284.929 613.837 285.309 613.877 285.629 613.957 C 285.949 613.997 286.329 614.077 286.769 614.197 L 286.769 616.957 C 286.449 616.837 286.049 616.757 285.569 616.717 C 285.129 616.637 284.469 616.597 283.589 616.597 C 281.589 616.597 279.829 616.957 278.309 617.677 C 276.829 618.357 275.589 619.277 274.589 620.437 C 273.629 621.557 272.889 622.857 272.369 624.337 C 271.889 625.817 271.649 627.337 271.649 628.897 L 271.649 645.517 L 268.889 645.517 L 268.889 614.797 Z" id="path-1" style="fill-opacity: 1; fill: rgb(0, 0, 0);"/>
      <path d="M 229.662 629.521 C 229.662 627.361 230.042 625.301 230.802 623.341 C 231.602 621.381 232.742 619.661 234.222 618.181 C 235.702 616.661 237.502 615.461 239.622 614.581 C 241.782 613.661 244.242 613.201 247.002 613.201 C 249.762 613.201 252.202 613.661 254.322 614.581 C 256.482 615.461 258.302 616.661 259.782 618.181 C 261.262 619.661 262.382 621.381 263.142 623.341 C 263.942 625.301 264.342 627.361 264.342 629.521 C 264.342 631.681 263.942 633.761 263.142 635.761 C 262.382 637.721 261.262 639.461 259.782 640.981 C 258.302 642.461 256.482 643.641 254.322 644.521 C 252.202 645.401 249.762 645.841 247.002 645.841 C 244.242 645.841 241.782 645.401 239.622 644.521 C 237.502 643.641 235.702 642.461 234.222 640.981 C 232.742 639.461 231.602 637.721 230.802 635.761 C 230.042 633.761 229.662 631.681 229.662 629.521 Z M 232.422 629.521 C 232.422 631.281 232.722 633.001 233.322 634.681 C 233.922 636.321 234.822 637.801 236.022 639.121 C 237.262 640.401 238.782 641.441 240.582 642.241 C 242.422 643.041 244.562 643.441 247.002 643.441 C 249.442 643.441 251.562 643.041 253.362 642.241 C 255.202 641.441 256.722 640.401 257.922 639.121 C 259.162 637.801 260.082 636.321 260.682 634.681 C 261.282 633.001 261.582 631.281 261.582 629.521 C 261.582 627.801 261.282 626.101 260.682 624.421 C 260.082 622.741 259.162 621.261 257.922 619.981 C 256.722 618.661 255.202 617.601 253.362 616.801 C 251.562 616.001 249.442 615.601 247.002 615.601 C 244.562 615.601 242.422 616.001 240.582 616.801 C 238.782 617.601 237.262 618.661 236.022 619.981 C 234.822 621.261 233.922 622.741 233.322 624.421 C 232.722 626.101 232.422 627.801 232.422 629.521 Z" id="path-4" style="fill-opacity: 1; fill: rgb(0, 0, 0);"/>
      <rect x="260.011" y="628.096" width="6.365" height="3.867" style="paint-order: stroke; fill: rgb(255, 255, 255);"/>
    </g>
  </g>
</svg>